<?xml version="1.0" encoding="UTF-8" standalone="no"?>
<svg
   width="16"
   height="16"
   version="1.1"
   id="svg1"
   sodipodi:docname="Add Scene.svg"
   xml:space="preserve"
   inkscape:version="1.4 (e7c3feb, 2024-10-09)"
   xmlns:inkscape="http://www.inkscape.org/namespaces/inkscape"
   xmlns:sodipodi="http://sodipodi.sourceforge.net/DTD/sodipodi-0.dtd"
   xmlns="http://www.w3.org/2000/svg"
   xmlns:svg="http://www.w3.org/2000/svg"><defs
     id="defs1" /><sodipodi:namedview
     id="namedview1"
     pagecolor="#505050"
     bordercolor="#eeeeee"
     borderopacity="1"
     inkscape:showpageshadow="0"
     inkscape:pageopacity="0"
     inkscape:pagecheckerboard="0"
     inkscape:deskcolor="#505050"
     inkscape:zoom="15.625"
     inkscape:cx="6.656"
     inkscape:cy="18.144"
     inkscape:window-width="2494"
     inkscape:window-height="1363"
     inkscape:window-x="2626"
     inkscape:window-y="40"
     inkscape:window-maximized="1"
     inkscape:current-layer="svg1" /><path
     fill="#5fff97"
     d="m 13.144531,12.5 h 2 v -2 h -2 V 8.500001 h -2 V 10.5 h -2 v 2 h 2 v 2 h 2 z"
     id="path5" /><path
     id="path1-35"
     d="M 14.708984 1.5 L 12.464844 1.828125 L 13.283203 3.7285156 L 14.998047 3.4785156 L 14.708984 1.5 z M 10.486328 2.1152344 L 8.5078125 2.4042969 L 9.3261719 4.3066406 L 11.304688 4.0175781 L 10.486328 2.1152344 z M 6.5273438 2.6933594 L 4.5488281 2.9824219 L 5.3671875 4.8847656 L 7.3457031 4.5957031 L 6.5273438 2.6933594 z M 2.5703125 3.2714844 L 0.85546875 3.5214844 L 1.1445312 5.5 L 3.3886719 5.171875 L 2.5703125 3.2714844 z M 1.1445312 6.5 L 1.1445312 12.5 A 2 2 0 0 0 3.1445312 14.5 L 10.144531 14.5 L 10.144531 13.5 L 8.1445312 13.5 L 8.1445312 9.5 L 10.144531 9.5 L 10.144531 7.5 L 14.144531 7.5 L 14.144531 9.5 L 15.144531 9.5 L 15.144531 6.5 L 1.1445312 6.5 z "
     style="fill:#e0e0e0;fill-opacity:1" /></svg>
