<?xml version="1.0" encoding="UTF-8" standalone="no"?>
<svg
   height="16"
   viewBox="0 0 16 16"
   width="16"
   version="1.1"
   id="svg147"
   sodipodi:docname="camera.svg"
   inkscape:version="1.4 (e7c3feb, 2024-10-09)"
   xmlns:inkscape="http://www.inkscape.org/namespaces/inkscape"
   xmlns:sodipodi="http://sodipodi.sourceforge.net/DTD/sodipodi-0.dtd"
   xmlns="http://www.w3.org/2000/svg"
   xmlns:svg="http://www.w3.org/2000/svg">
  <defs
     id="defs151" />
  <sodipodi:namedview
     id="namedview149"
     pagecolor="#ffffff"
     bordercolor="#666666"
     borderopacity="1.0"
     inkscape:showpageshadow="2"
     inkscape:pageopacity="0.0"
     inkscape:pagecheckerboard="0"
     inkscape:deskcolor="#d1d1d1"
     showgrid="false"
     inkscape:zoom="36.781251"
     inkscape:cx="0.040781648"
     inkscape:cy="7.6533559"
     inkscape:window-width="2494"
     inkscape:window-height="1363"
     inkscape:window-x="2626"
     inkscape:window-y="40"
     inkscape:window-maximized="1"
     inkscape:current-layer="svg147" />
  <path
     id="path145"
     d="M 6.5917969 2 L 5.1835938 4 L 4.1386719 4 L 4.1386719 3 L 2.046875 3 L 2.046875 4 L 1 4 C 0.446 4 0 4.446 0 5 L 0 13 C 0 13.554 0.446 14 1 14 L 15 14 C 15.554 14 16 13.554 16 13 L 16 5 C 16 4.446 15.554 4 15 4 L 10.816406 4 L 9.4082031 2 L 6.5917969 2 z M 8 4.9765625 C 10.222592 4.9759461 12.024055 6.7774082 12.023438 9 C 12.024055 11.222592 10.222592 13.024055 8 13.023438 C 5.7774082 13.024055 3.9759461 11.222592 3.9765625 9 C 3.9759459 6.7774081 5.7774081 4.9759459 8 4.9765625 z M 8 6.7324219 C 6.7329087 6.7329206 5.7055768 7.7602524 5.7050781 9.0273438 C 5.7055764 10.294435 6.7329084 11.321767 8 11.322266 C 9.2670916 11.321767 10.294424 10.294435 10.294922 9.0273438 C 10.294424 7.7602524 9.2670913 6.7329206 8 6.7324219 z "
     style="fill:#f9f9f9" />
</svg>
